<svg xmlns="http://www.w3.org/2000/svg" viewBox="0 0 31.33 31.33"><defs><style>.cls-1{fill:#fff;}.cls-2{fill:#0d4d90;}</style></defs><g id="Layer_2" data-name="Layer 2"><g id="Layer_1-2" data-name="Layer 1"><rect class="cls-1" width="31.33" height="31.33" rx="5.42"/><path class="cls-2" d="M5.06,21.9V9.13H3V7H8.64a16.05,16.05,0,0,1,3.51.28,3.68,3.68,0,0,1,2.06,1.43,4.21,4.21,0,0,1,.9,2.68,4.29,4.29,0,0,1-.54,2.15A3.31,3.31,0,0,1,13,15a4.2,4.2,0,0,1,2.19,1.63A4.51,4.51,0,0,1,16,19.2a4.66,4.66,0,0,1-.57,2.29,4.06,4.06,0,0,1-1.51,1.59,5.87,5.87,0,0,1-2.06.76,18.72,18.72,0,0,1-3.06.2H3V21.9Zm2.57-7.81H9.24a4,4,0,0,0,2.57-.64,2.41,2.41,0,0,0,.72-1.9c0-1.61-1.09-2.42-3.29-2.42H7.63Zm0,7.81h1a14.26,14.26,0,0,0,2.78-.19,2.39,2.39,0,0,0,1.44-.89A2.83,2.83,0,0,0,13.38,19a2.66,2.66,0,0,0-.53-1.68,2.59,2.59,0,0,0-1.38-.91A9.58,9.58,0,0,0,9.1,16.2H7.63Z"/><path class="cls-2" d="M27.38,16.09a7.44,7.44,0,0,0-3.94-1.8L23,14.21a11.86,11.86,0,0,1-1.18-.27l-.26-.06a2.45,2.45,0,0,1-2.22-2.5,2.35,2.35,0,0,1,2.22-2.51h.11A5.34,5.34,0,0,1,23.44,9,2.28,2.28,0,0,1,25,10a4.61,4.61,0,0,1,.47,2.34h2.15V12q0-2.76-1.26-3.84a5.06,5.06,0,0,0-2.89-1.25V5.75H21.59V6.93a5.11,5.11,0,0,0-3.42,1.48,4.6,4.6,0,0,0-1.25,3.33q0,3.81,4.67,4.75h0c.55.08,1.09.19,1.62.32l.23.05a3.56,3.56,0,0,1,2.07.94,2.37,2.37,0,0,1,.5,1.55c0,1.5-.85,2.41-2.57,2.73h0a4.68,4.68,0,0,1-1.71.05l-.14,0q-2.57-.34-2.75-3.4H16.61c0,.15,0,.27,0,.34A5,5,0,0,0,18,22.55a5.12,5.12,0,0,0,3.64,1.54v1.49h1.85V24.09a5.8,5.8,0,0,0,3.64-1.55A4.86,4.86,0,0,0,28.37,19,4.29,4.29,0,0,0,27.38,16.09Z"/></g></g></svg>